<svg width="56" height="56" viewBox="0 0 56 56" fill="none" xmlns="http://www.w3.org/2000/svg">
<g id="vuesax/linear/chart">
<g id="vuesax/linear/chart_2">
<g id="chart">
<path id="Vector" d="M7 51.3334H49" stroke="black" stroke-width="3.24638" stroke-linecap="round" stroke-linejoin="round"/>
<g id="Group">
<path id="Vector_2" d="M13.0666 19.5533H9.33333C8.05 19.5533 7 20.6033 7 21.8867V42C7 43.2833 8.05 44.3333 9.33333 44.3333H13.0666C14.3499 44.3333 15.3999 43.2833 15.3999 42V21.8867C15.3999 20.6033 14.3499 19.5533 13.0666 19.5533Z" stroke="black" stroke-width="3.24638" stroke-linecap="round" stroke-linejoin="round"/>
<path id="Vector_3" d="M29.8664 12.11H26.1331C24.8498 12.11 23.7998 13.16 23.7998 14.4433V42C23.7998 43.2833 24.8498 44.3333 26.1331 44.3333H29.8664C31.1497 44.3333 32.1997 43.2833 32.1997 42V14.4433C32.1997 13.16 31.1497 12.11 29.8664 12.11Z" stroke="black" stroke-width="3.24638" stroke-linecap="round" stroke-linejoin="round"/>
<path id="Vector_4" d="M46.6662 4.66663H42.9329C41.6496 4.66663 40.5996 5.71663 40.5996 6.99996V42C40.5996 43.2833 41.6496 44.3333 42.9329 44.3333H46.6662C47.9496 44.3333 48.9996 43.2833 48.9996 42V6.99996C48.9996 5.71663 47.9496 4.66663 46.6662 4.66663Z" stroke="black" stroke-width="3.24638" stroke-linecap="round" stroke-linejoin="round"/>
</g>
</g>
</g>
</g>
</svg>
