<svg width="56" height="56" viewBox="0 0 56 56" fill="none" xmlns="http://www.w3.org/2000/svg">
<g id="guidance:ui-phone">
<path id="Vector" d="M22.1667 1.16663V4.66663C22.1667 5.59488 22.5354 6.48512 23.1918 7.1415C23.8482 7.79788 24.7384 8.16663 25.6667 8.16663H30.3333C31.2616 8.16663 32.1518 7.79788 32.8082 7.1415C33.4646 6.48512 33.8333 5.59488 33.8333 4.66663V1.16663M23.3333 47.8333H32.6667M10.5 1.74996C10.5 1.74996 11.6667 17.4813 11.6667 28C11.6667 38.5186 10.5 54.25 10.5 54.25V54.8333H45.5V54.25C45.5 54.25 44.3333 38.5186 44.3333 28C44.3333 17.4813 45.5 1.74996 45.5 1.74996V1.16663H10.5V1.74996Z" stroke="black" stroke-width="1.75"/>
</g>
</svg>
