<svg width="73" height="74" viewBox="0 0 73 74" fill="none" xmlns="http://www.w3.org/2000/svg">
<g id="Icon">
<circle id="Oval" cx="36.7482" cy="36.9606" r="36.2521" fill="white" fill-opacity="0.3"/>
<path id="Star" fill-rule="evenodd" clip-rule="evenodd" d="M42.5692 49.4739L36.7233 46.4223C36.3829 46.2435 35.9764 46.2435 35.636 46.4223L34.3031 47.1238C33.7342 47.4059 33.0441 47.1823 32.7487 46.6202C32.4533 46.058 32.6607 45.3629 33.2158 45.0544L34.5486 44.3529C35.5698 43.8165 36.7894 43.8165 37.8106 44.3529L42.5575 46.8549L41.6455 41.5703C41.4517 40.435 41.8275 39.277 42.651 38.4719L46.4976 34.7306L41.1895 33.9589C40.0469 33.7936 39.0587 33.0766 38.5472 32.0415L36.2089 27.2362L33.8705 32.0415C33.359 33.0766 32.3709 33.7936 31.2282 33.9589L25.9201 34.7306L29.7667 38.4719C30.5939 39.2796 30.9701 40.4429 30.7722 41.5819L29.6615 48.0358C29.5905 48.4535 29.302 48.8016 28.9048 48.9489C28.5075 49.0963 28.0618 49.0205 27.7356 48.7502C27.4094 48.4798 27.2521 48.056 27.3231 47.6383L28.4339 41.1844C28.5002 40.8028 28.3732 40.4131 28.0948 40.1439L23.4181 35.5724C22.9391 35.1068 22.7662 34.4094 22.9723 33.774C23.1783 33.1385 23.7274 32.6753 24.3885 32.5793L30.8657 31.6323C31.246 31.5752 31.5739 31.3347 31.7426 30.9892L34.6422 25.1434C34.9377 24.5449 35.5473 24.166 36.2147 24.166C36.8822 24.166 37.4918 24.5449 37.7872 25.1434L40.6868 30.9892C40.8556 31.3347 41.1834 31.5752 41.5637 31.6323L48.0409 32.5793C48.702 32.6753 49.2511 33.1385 49.4572 33.774C49.6632 34.4094 49.4903 35.1068 49.0113 35.5724L44.3346 40.1439C44.0599 40.4106 43.9333 40.795 43.9956 41.1727L45.1063 47.6266C45.1962 48.1376 45.0553 48.6622 44.7213 49.0593C44.3874 49.4564 43.8947 49.6853 43.3759 49.6843L43.3876 49.6726C43.1027 49.6738 42.8218 49.6056 42.5692 49.4739Z" fill="white"/>
</g>
</svg>
