<svg width="56" height="56" viewBox="0 0 56 56" fill="none" xmlns="http://www.w3.org/2000/svg">
<g id="material-symbols-light:inbox-customize-outline-rounded">
<path id="Vector" d="M13.1013 44.3333C12.028 44.3333 11.132 43.974 10.4133 43.2553C9.69312 42.5351 9.33301 41.6383 9.33301 40.565V10.7683C9.33301 9.695 9.69312 8.799 10.4133 8.08033C11.132 7.36011 12.028 7 13.1013 7H42.898C43.9713 7 44.8673 7.36011 45.586 8.08033C46.3062 8.799 46.6663 9.695 46.6663 10.7683V22.9647C46.2868 22.7344 45.9096 22.5423 45.5347 22.3883C45.1613 22.2343 44.7608 22.099 44.333 21.9823V10.7683C44.333 10.3499 44.1985 10.0061 43.9293 9.737C43.6602 9.46789 43.3165 9.33333 42.898 9.33333H13.1013C12.6829 9.33333 12.3391 9.46789 12.07 9.737C11.8009 10.0061 11.6663 10.3499 11.6663 10.7683V31.7683H19.9963C20.5812 31.7683 21.0191 31.8609 21.31 32.046C21.5993 32.2296 21.8412 32.5111 22.0357 32.8907C22.4915 33.7556 23.0795 34.4633 23.7997 35.014C24.5199 35.5647 25.314 35.9567 26.182 36.19C26.2147 36.6084 26.2567 37.0144 26.308 37.408C26.3593 37.8016 26.4278 38.2076 26.5133 38.626C25.1445 38.4129 23.9 37.9128 22.78 37.1257C21.66 36.337 20.7376 35.329 20.0127 34.1017H11.6663V40.565C11.6663 40.9834 11.8009 41.3272 12.07 41.5963C12.3391 41.8654 12.6829 42 13.1013 42H28.128C28.3722 42.4356 28.6165 42.8408 28.8607 43.2157C29.1065 43.589 29.3927 43.9616 29.7193 44.3333H13.1013ZM13.1013 42H11.6663H28.128H13.1013ZM38.936 42.8517C38.0805 42.6572 37.3587 42.4006 36.7707 42.0817C36.1827 41.7643 35.6149 41.3 35.0673 40.6887L33.861 41.1787C33.6479 41.2564 33.4395 41.2689 33.2357 41.216C33.0319 41.1631 32.8678 41.0356 32.7433 40.8333L32.419 40.2967C32.2635 40.0913 32.202 39.8681 32.2347 39.627C32.2689 39.3843 32.3832 39.1806 32.5777 39.0157L33.5577 38.2223C33.2715 37.4259 33.1283 36.6357 33.1283 35.8517C33.1283 35.0692 33.2722 34.265 33.56 33.439L32.5777 32.599C32.3832 32.4341 32.2619 32.2381 32.2137 32.011C32.1655 31.7839 32.2191 31.5684 32.3747 31.3647L32.7433 30.7813C32.8678 30.5791 33.0319 30.4516 33.2357 30.3987C33.4395 30.3458 33.6479 30.3582 33.861 30.436L35.0673 30.926C35.5853 30.3458 36.1609 29.8884 36.794 29.554C37.4256 29.2211 38.1396 28.9567 38.936 28.7607L39.0993 27.587C39.1476 27.3443 39.2518 27.1429 39.412 26.9827C39.5722 26.824 39.7783 26.7447 40.0303 26.7447H40.6767C40.9271 26.7447 41.1325 26.824 41.2927 26.9827C41.4529 27.1429 41.5571 27.3451 41.6053 27.5893L41.7687 28.763C42.5651 28.9279 43.2729 29.1846 43.892 29.533C44.5096 29.8814 45.0921 30.3458 45.6397 30.926L46.846 30.436C47.0576 30.3582 47.2652 30.3458 47.469 30.3987C47.6728 30.4516 47.8377 30.5791 47.9637 30.7813L48.33 31.3647C48.4856 31.5684 48.54 31.7839 48.4933 32.011C48.4451 32.2381 48.3238 32.4341 48.1293 32.599L47.147 33.439C47.4643 34.2946 47.6152 35.1066 47.5997 35.875C47.5841 36.6434 47.4185 37.4259 47.1027 38.2223L48.0827 39.0157C48.218 39.1199 48.3323 39.2933 48.4257 39.536C48.519 39.7787 48.4723 40.0314 48.2857 40.2943L47.9637 40.8333C47.8377 41.0356 47.6728 41.1631 47.469 41.216C47.2668 41.2689 47.0591 41.2564 46.846 41.1787L45.6397 40.6887C45.0921 41.2704 44.5243 41.7278 43.9363 42.0607C43.3483 42.3936 42.6266 42.658 41.771 42.854L41.6053 44.0277C41.5571 44.2703 41.4529 44.4718 41.2927 44.632C41.1325 44.7922 40.9271 44.8723 40.6767 44.8723H40.0303C39.7783 44.8723 39.5722 44.7922 39.412 44.632C39.2518 44.4718 39.1483 44.2703 39.1017 44.0277L38.936 42.8517ZM40.3523 40.8333C41.7259 40.8333 42.9073 40.3387 43.8967 39.3493C44.8844 38.3616 45.3783 37.1809 45.3783 35.8073C45.3783 34.4338 44.8837 33.2531 43.8943 32.2653C42.9066 31.276 41.7259 30.7813 40.3523 30.7813C38.9803 30.7813 37.7997 31.276 36.8103 32.2653C35.821 33.2531 35.3263 34.4338 35.3263 35.8073C35.3263 37.1809 35.821 38.3616 36.8103 39.3493C37.7997 40.3387 38.9803 40.8333 40.3523 40.8333Z" fill="white"/>
</g>
</svg>
