<svg width="24" height="26" viewBox="0 0 24 26" fill="none" xmlns="http://www.w3.org/2000/svg">
<g id="logos:google-play-icon" clip-path="url(#clip0_631_86)">
<path id="Vector" d="M11.3393 12.7693L0.986328 23.6162C1.10259 24.0282 1.31152 24.4082 1.59714 24.7271C1.88277 25.046 2.23752 25.2953 2.63429 25.4561C3.03106 25.6169 3.45934 25.6849 3.88639 25.6548C4.31344 25.6246 4.72795 25.4973 5.09824 25.2825L16.7473 18.6479L11.3393 12.7693Z" fill="#EA4335"/>
<path id="Vector_2" d="M21.8083 10.9256L16.7709 8.04024L11.1006 13.0161L16.7939 18.6324L21.793 15.7779C22.2359 15.546 22.6068 15.1973 22.8656 14.7697C23.1245 14.342 23.2613 13.8516 23.2613 13.3517C23.2613 12.8518 23.1245 12.3615 22.8656 11.9338C22.6068 11.5061 22.2359 11.1574 21.793 10.9255L21.8083 10.9256Z" fill="#FBBC04"/>
<path id="Vector_3" d="M0.986198 3.03354C0.92362 3.26489 0.892469 3.5036 0.893584 3.74326V22.9064C0.894232 23.1459 0.925354 23.3844 0.986198 23.6162L11.6941 13.0471L0.986198 3.03354Z" fill="#4285F4"/>
<path id="Vector_4" d="M11.4165 13.3249L16.7705 8.04033L5.13686 1.37487C4.69915 1.11853 4.20133 0.982774 3.69408 0.981435C2.43531 0.978989 1.32865 1.81444 0.986328 3.02586L11.4165 13.3249Z" fill="#34A853"/>
</g>
<defs>
<clipPath id="clip0_631_86">
<rect width="22.3673" height="24.7263" fill="white" transform="translate(0.893555 0.98143)"/>
</clipPath>
</defs>
</svg>
