<svg width="208" height="55" viewBox="0 0 208 55" fill="none" xmlns="http://www.w3.org/2000/svg">
<g id="Asset 3 5" clip-path="url(#clip0_823_92)">
<g id="Layer 2">
<g id="Layer 1">
<path id="Vector" d="M119.544 0.897827C119.807 3.57388 119.766 6.27112 119.423 8.938C118.961 12.5157 118.472 16.3258 116.112 19.5564C112.198 24.9142 105.303 25.7262 103.332 25.8824C102.725 24.009 102.446 22.0452 102.506 20.077C102.541 18.9214 102.697 13.9245 106.16 10.097C107.583 8.52159 108.381 8.45566 112.483 5.84616C115.554 3.89251 117.983 2.11582 119.544 0.897827Z" fill="white"/>
<path id="Vector_2" d="M98.9663 29.2068C100.063 24.3486 97.0404 18.7653 93.0671 15.8435C91.2176 14.4901 88.8683 13.7337 84.1768 12.2242C82.2301 11.5996 80.5991 11.1832 79.4922 10.8951C80.0318 11.6277 80.4968 12.4124 80.8802 13.2374C82.6395 17.0372 81.484 19.1852 82.3168 22.1798C83.7049 27.1386 89.1911 29.5364 90.1419 29.9493C92.7212 31.0613 95.5553 31.4477 98.3382 31.0667C98.6148 30.4715 98.8254 29.8478 98.9663 29.2068Z" fill="white"/>
<path id="Vector_3" d="M112.202 15.6213C106.043 21.6836 105.04 26.4757 104.304 29.9736L104.249 30.2442C103.638 33.1418 103.613 35.9005 103.554 41.3971C103.516 45.412 103.648 49.4511 103.947 53.4105L100.824 53.6465C100.695 51.9565 100.598 50.2493 100.532 48.5385C100.53 48.5317 100.53 48.5245 100.532 48.5177C100.452 46.6196 100.414 44.7006 100.414 42.8059C100.414 42.3305 100.414 41.8551 100.414 41.3797C100.452 37.3302 100.473 34.7137 100.723 32.3922C100.827 31.4414 100.969 30.5427 101.164 29.6162L101.223 29.349C102.021 25.6637 103.18 20.1186 110.002 13.3901L112.202 15.6213Z" fill="white"/>
<path id="Vector_4" d="M100.75 32.3818C100.5 34.7033 100.48 37.3197 100.441 41.3693C100.441 41.8447 100.441 42.3201 100.441 42.7955C100.318 41.6896 100.134 40.5914 99.8896 39.5059C99.5775 38.1239 99.167 36.7659 98.6612 35.4424C97.6146 32.7174 96.1666 30.1642 94.3652 27.8672L96.8151 25.9413C98.3729 27.9278 99.6935 30.0892 100.75 32.3818Z" fill="white"/>
<path id="Vector_5" d="M19.5747 37.8229H7.42944V54.684H0V9.25024H22.8574C27.6531 9.25024 31.4701 10.7077 34.3087 13.6225C37.1576 16.5374 38.5977 19.8687 38.5977 23.6303C38.6145 26.7145 37.579 29.7123 35.662 32.1285C33.6841 34.6894 30.9346 36.3967 27.4136 37.2503L39.8157 54.7048H31.2307L19.5747 37.8229ZM7.37392 31.549H22.3889C25.1026 31.549 27.2818 30.7578 28.9266 29.2067C29.7132 28.5008 30.3409 27.6358 30.768 26.6691C31.1951 25.7024 31.412 24.6559 31.4042 23.599C31.4125 22.5375 31.2009 21.4857 30.7829 20.5099C30.3648 19.534 29.7493 18.6553 28.9752 17.9289C27.3558 16.3466 25.2437 15.5554 22.6388 15.5554H7.43985L7.37392 31.549Z" fill="white"/>
<path id="Vector_6" d="M57.0136 54.8367C52.1173 54.8367 48.0295 53.2231 44.7468 50.0272C41.4642 46.8312 39.8193 42.8268 39.8193 38.0138C39.8193 33.2008 41.4607 29.231 44.7468 26.0351C48.033 22.8391 52.1173 21.2255 57.0136 21.2255C62.4084 21.2255 66.5528 23.1179 69.4469 26.9026V22.0653H76.5848V54.0351H69.4469V49.177C66.5621 52.9617 62.4176 54.8552 57.0136 54.8575V54.8367ZM58.0858 48.8786C61.2679 48.8786 63.985 47.8376 66.1954 45.8041C68.4058 43.7706 69.5128 41.1507 69.5128 38.0276C69.5486 36.5767 69.2707 35.1351 68.6981 33.8014C68.1256 32.4677 67.2719 31.2733 66.1954 30.2998C64.0071 28.2603 61.1076 27.158 58.1171 27.2288C54.8344 27.2288 52.152 28.2698 50.0422 30.2686C47.9324 32.2673 46.8914 34.8629 46.8914 37.9964C46.8914 41.1299 47.9636 43.7394 50.0734 45.7867C52.1832 47.8341 54.9003 48.8612 58.1865 48.8612L58.0858 48.8786Z" fill="white"/>
<path id="Vector_7" d="M131.446 54.8679C127.78 54.9336 124.173 53.9421 121.056 52.0121C118.037 50.1209 116.094 47.8237 115.188 45.124L121.726 43.3542C122.361 45.0893 123.603 46.5189 125.411 47.6675C127.303 48.832 129.492 49.4249 131.713 49.3748C133.858 49.3748 135.599 48.941 136.942 48.1013C138.285 47.2615 138.952 46.2413 138.952 45.0303C138.972 44.5924 138.888 44.1559 138.707 43.7566C138.526 43.3573 138.253 43.0066 137.911 42.7331C137.217 42.1755 136.077 41.6793 134.493 41.2444L125.207 38.6974C119.71 37.1775 116.962 34.4465 116.962 30.5045C116.962 27.9575 118.235 25.7852 120.817 23.9565C123.399 22.1277 126.515 21.2255 130.169 21.2255C133.823 21.2255 136.939 21.9681 139.587 23.4603C142.234 24.9524 144.077 26.9026 145.118 29.2935L138.747 31.0285C137.959 29.6758 136.811 28.5692 135.429 27.8326C133.8 26.9315 131.96 26.4811 130.099 26.5278C128.572 26.4722 127.063 26.8838 125.776 27.7076C124.637 28.4826 124.068 29.3825 124.068 30.4074C124.068 31.7954 125.308 32.8503 127.788 33.5721L136.97 36.0254C139.819 36.8027 142.033 37.8264 143.643 39.1277C145.253 40.4289 146.072 42.2958 146.072 44.7457C146.072 47.6328 144.684 50.0237 141.984 51.9461C139.285 53.8686 135.815 54.8332 131.626 54.8332L131.446 54.8679Z" fill="white"/>
<path id="Vector_8" d="M167.556 54.8679C162.094 54.8679 157.67 53.3168 154.252 50.2111C150.834 47.1054 149.123 43.0419 149.123 38.045C149.123 33.2355 150.766 29.2322 154.051 26.0351C157.337 22.8391 161.626 21.2255 166.89 21.2255C172.355 21.2255 176.644 22.7454 179.795 25.8164C182.946 28.8875 184.521 32.7566 184.521 37.3926C184.521 38.2884 184.442 39.1825 184.285 40.0646H156.23C156.303 41.3245 156.64 42.555 157.217 43.6773C157.794 44.7996 158.6 45.7888 159.582 46.5814C161.591 48.2262 164.308 49.066 167.691 49.066C172.452 49.066 175.735 47.3587 177.512 43.9129L184.081 45.7139C182.841 48.2262 180.797 50.3673 177.949 52.137C175.1 53.9067 171.613 54.8055 167.49 54.8055L167.556 54.8679ZM177.446 35.6576C177.363 34.462 177.044 33.2945 176.508 32.2226C175.972 31.1506 175.229 30.1952 174.323 29.4114C172.477 27.7979 169.999 26.9824 166.914 26.9824C163.93 26.9824 161.483 27.8221 159.54 29.4982C157.672 31.0329 156.481 33.2397 156.223 35.6437L177.446 35.6576Z" fill="white"/>
<path id="Vector_9" d="M196.167 26.4271C197.148 24.3847 198.773 22.7215 200.792 21.6939C202.84 20.6529 205.251 20.2781 208 20.6529V27.2461C204.203 26.6654 201.287 27.3791 199.252 29.3871C197.208 31.3928 196.201 34.7796 196.201 39.5787V54.8679H188.994V21.0034H196.201V26.3959L196.167 26.4271Z" fill="white"/>
</g>
</g>
</g>
<defs>
<clipPath id="clip0_823_92">
<rect width="208" height="53.9701" fill="white" transform="translate(0 0.897827)"/>
</clipPath>
</defs>
</svg>
