<svg width="57" height="57" viewBox="0 0 57 57" fill="none" xmlns="http://www.w3.org/2000/svg">
<g id="vuesax/linear/wallet-check">
<g id="vuesax/linear/wallet-check_2">
<g id="Group">
<path id="Vector" d="M21.4997 44.8333C21.4997 46.5833 21.0097 48.24 20.1463 49.64C18.5363 52.3467 15.573 54.1667 12.1663 54.1667C8.75967 54.1667 5.79635 52.3467 4.18635 49.64C3.32301 48.24 2.83301 46.5833 2.83301 44.8333C2.83301 39.6767 7.00967 35.5 12.1663 35.5C17.323 35.5 21.4997 39.6767 21.4997 44.8333Z" stroke="black" stroke-width="1.9823" stroke-miterlimit="10" stroke-linecap="round" stroke-linejoin="round"/>
<path id="Vector_2" d="M8.5293 44.8323L10.8393 47.1423L15.8093 42.5457" stroke="black" stroke-width="1.9823" stroke-linecap="round" stroke-linejoin="round"/>
</g>
<path id="Vector_3" d="M41.9196 16.9499C41.3596 16.8566 40.7763 16.8332 40.1696 16.8332H16.8363C16.183 16.8332 15.553 16.8799 14.9463 16.9732C15.273 16.3199 15.7396 15.7133 16.2996 15.1533L23.883 7.54663C27.0796 4.37329 32.2596 4.37329 35.4563 7.54663L39.5396 11.6765C41.033 13.1465 41.8263 15.0132 41.9196 16.9499Z" stroke="black" stroke-width="1.9823" stroke-linecap="round" stroke-linejoin="round"/>
<path id="Vector_4" d="M51.8337 28.5V40.1667C51.8337 47.1667 47.167 51.8334 40.167 51.8334H18.3037C19.027 51.2267 19.657 50.48 20.147 49.64C21.0103 48.24 21.5003 46.5834 21.5003 44.8334C21.5003 39.6767 17.3237 35.5 12.167 35.5C9.36699 35.5 6.87033 36.7367 5.16699 38.6733V28.5C5.16699 22.1534 8.99366 17.72 14.9437 16.9734C15.5503 16.88 16.1803 16.8334 16.8337 16.8334H40.167C40.7737 16.8334 41.357 16.8567 41.917 16.95C47.937 17.65 51.8337 22.1067 51.8337 28.5Z" stroke="black" stroke-width="1.9823" stroke-linecap="round" stroke-linejoin="round"/>
<path id="Vector_5" d="M51.8337 29.6666H44.8337C42.267 29.6666 40.167 31.7666 40.167 34.3333C40.167 36.9 42.267 39 44.8337 39H51.8337" stroke="black" stroke-width="1.9823" stroke-linecap="round" stroke-linejoin="round"/>
</g>
</g>
</svg>
