<svg width="22" height="30" viewBox="0 0 22 30" fill="none" xmlns="http://www.w3.org/2000/svg">
<path id="path4" d="M21.2888 23.0276C20.8997 24.0251 20.4391 24.9434 19.9054 25.7877C19.178 26.9386 18.5824 27.7353 18.1234 28.1777C17.4118 28.9038 16.6494 29.2757 15.8331 29.2969C15.247 29.2969 14.5402 29.1118 13.7175 28.7364C12.892 28.3627 12.1335 28.1777 11.4399 28.1777C10.7124 28.1777 9.93227 28.3627 9.09778 28.7364C8.26202 29.1118 7.58875 29.3074 7.07399 29.3268C6.29112 29.3638 5.5108 28.9814 4.7319 28.1777C4.23477 27.6965 3.61296 26.8716 2.86805 25.7031C2.06883 24.4552 1.41175 23.0082 0.896991 21.3584C0.345697 19.5765 0.0693359 17.851 0.0693359 16.1805C0.0693359 14.2669 0.441948 12.6165 1.18828 11.2334C1.77484 10.1225 2.55516 9.24618 3.5318 8.60285C4.50843 7.95953 5.56369 7.6317 6.70011 7.61073C7.32192 7.61073 8.13735 7.82417 9.15067 8.24365C10.1611 8.66454 10.81 8.87799 11.0944 8.87799C11.3071 8.87799 12.0278 8.62841 13.2497 8.13085C14.4052 7.66942 15.3804 7.47836 16.1793 7.55362C18.3441 7.7475 19.9705 8.69451 21.0522 10.4006C19.116 11.7024 18.1583 13.5258 18.1774 15.8648C18.1948 17.6867 18.7904 19.2029 19.961 20.4067C20.4915 20.9654 21.0839 21.3972 21.7431 21.7039C21.6001 22.1639 21.4492 22.6046 21.2888 23.0276ZM16.3238 1.34671C16.3238 2.77472 15.8537 4.10806 14.9166 5.34218C13.7858 6.80931 12.4179 7.65708 10.9346 7.52331C10.9157 7.35199 10.9048 7.17168 10.9048 6.98221C10.9048 5.61132 11.4426 4.14419 12.3976 2.94461C12.8744 2.33725 13.4808 1.83223 14.2162 1.42937C14.95 1.03252 15.6441 0.81305 16.2968 0.775467C16.3159 0.966371 16.3238 1.15729 16.3238 1.34669V1.34671Z" fill="white"/>
</svg>
