<svg width="56" height="56" viewBox="0 0 56 56" fill="none" xmlns="http://www.w3.org/2000/svg">
<g id="solar:dollar-outline">
<path id="Vector" fill-rule="evenodd" clip-rule="evenodd" d="M28.0003 6.41797C22.2761 6.41797 16.7863 8.69192 12.7386 12.7396C8.69094 16.7872 6.41699 22.277 6.41699 28.0013C6.41699 33.7256 8.69094 39.2154 12.7386 43.263C16.7863 47.3107 22.2761 49.5846 28.0003 49.5846C33.7246 49.5846 39.2144 47.3107 43.262 43.263C47.3097 39.2154 49.5837 33.7256 49.5837 28.0013C49.5837 22.277 47.3097 16.7872 43.262 12.7396C39.2144 8.69192 33.7246 6.41797 28.0003 6.41797ZM2.91699 28.0013C2.91699 14.1483 14.1473 2.91797 28.0003 2.91797C41.8533 2.91797 53.0837 14.1483 53.0837 28.0013C53.0837 41.8543 41.8533 53.0846 28.0003 53.0846C14.1473 53.0846 2.91699 41.8543 2.91699 28.0013ZM28.0003 12.2513C28.4645 12.2513 28.9096 12.4357 29.2378 12.7639C29.566 13.0921 29.7503 13.5372 29.7503 14.0013V14.741C33.5537 15.4223 36.7503 18.2806 36.7503 22.168C36.7503 22.6321 36.566 23.0772 36.2378 23.4054C35.9096 23.7336 35.4645 23.918 35.0003 23.918C34.5362 23.918 34.0911 23.7336 33.7629 23.4054C33.4347 23.0772 33.2503 22.6321 33.2503 22.168C33.2503 20.586 31.9343 18.9083 29.7503 18.311V26.4076C33.5537 27.089 36.7503 29.9473 36.7503 33.8346C36.7503 37.722 33.5537 40.5803 29.7503 41.2616V42.0013C29.7503 42.4654 29.566 42.9106 29.2378 43.2387C28.9096 43.5669 28.4645 43.7513 28.0003 43.7513C27.5362 43.7513 27.0911 43.5669 26.7629 43.2387C26.4347 42.9106 26.2503 42.4654 26.2503 42.0013V41.2616C22.447 40.5803 19.2503 37.722 19.2503 33.8346C19.2503 33.3705 19.4347 32.9254 19.7629 32.5972C20.0911 32.269 20.5362 32.0846 21.0003 32.0846C21.4645 32.0846 21.9096 32.269 22.2378 32.5972C22.566 32.9254 22.7503 33.3705 22.7503 33.8346C22.7503 35.4166 24.0663 37.0943 26.2503 37.6893V29.595C22.447 28.9136 19.2503 26.0553 19.2503 22.168C19.2503 18.2806 22.447 15.4223 26.2503 14.741V14.0013C26.2503 13.5372 26.4347 13.0921 26.7629 12.7639C27.0911 12.4357 27.5362 12.2513 28.0003 12.2513ZM26.2503 18.311C24.0663 18.9083 22.7503 20.586 22.7503 22.168C22.7503 23.75 24.0663 25.4276 26.2503 26.0226V18.311ZM29.7503 29.9776V37.6916C31.9343 37.0943 33.2503 35.419 33.2503 33.8346C33.2503 32.2526 31.9343 30.5726 29.7503 29.9776Z" fill="white"/>
</g>
</svg>
