<svg width="145" height="38" viewBox="0 0 145 38" fill="none" xmlns="http://www.w3.org/2000/svg">
<g id="Asset 3 2" clip-path="url(#clip0_803_120)">
<g id="Layer 2">
<g id="Layer 1">
<path id="Vector" d="M83.3343 -6.10352e-05C83.5177 1.8769 83.4893 3.76872 83.2496 5.63925C82.9279 8.14859 82.5868 10.821 80.9418 13.0869C78.2131 16.8449 73.4065 17.4144 72.0325 17.5239C71.6096 16.21 71.4148 14.8325 71.4567 13.452C71.4809 12.6415 71.5898 9.13675 74.004 6.45217C74.9958 5.34719 75.5522 5.30094 78.4115 3.47066C80.5524 2.10038 82.2457 0.854233 83.3343 -6.10352e-05Z" fill="#A91D39"/>
<path id="Vector_2" d="M68.9907 19.8556C69.7551 16.4481 67.6482 12.532 64.8783 10.4827C63.589 9.53347 61.9513 9.00288 58.6808 7.94414C57.3237 7.50604 56.1867 7.21398 55.415 7.01196C55.7912 7.52576 56.1154 8.07612 56.3827 8.65484C57.6091 11.3199 56.8036 12.8265 57.3841 14.927C58.3518 18.405 62.1763 20.0868 62.8391 20.3764C64.6372 21.1564 66.6129 21.4273 68.5529 21.1601C68.7457 20.7427 68.8925 20.3052 68.9907 19.8556Z" fill="#A91E3A"/>
<path id="Vector_3" d="M78.2165 10.3269C73.9227 14.5789 73.2236 17.9401 72.7108 20.3934L72.6721 20.5833C72.2463 22.6156 72.2294 24.5505 72.1883 28.4058C72.1617 31.2218 72.2536 34.0548 72.4616 36.8319L70.2845 36.9974C70.195 35.8121 70.1272 34.6146 70.0813 33.4147C70.0801 33.4099 70.0801 33.4049 70.0813 33.4001C70.0256 32.0688 69.999 30.7229 69.999 29.394C69.999 29.0605 69.999 28.7271 69.999 28.3936C70.0256 25.5533 70.0402 23.7181 70.2143 22.0899C70.2869 21.423 70.3861 20.7926 70.5215 20.1428L70.5627 19.9553C71.119 17.3706 71.927 13.4812 76.6828 8.7619L78.2165 10.3269Z" fill="#A91E3A"/>
<path id="Vector_4" d="M70.2333 22.0826C70.0591 23.7109 70.0446 25.546 70.018 28.3864C70.018 28.7198 70.018 29.0533 70.018 29.3867C69.9322 28.611 69.8038 27.8407 69.6333 27.0794C69.4158 26.11 69.1296 25.1576 68.777 24.2293C68.0474 22.318 67.038 20.5272 65.7822 18.9161L67.4901 17.5653C68.576 18.9586 69.4966 20.4746 70.2333 22.0826Z" fill="#A91E3A"/>
<path id="Vector_5" d="M13.6449 25.899H5.1782V37.7252H-0.000976562V5.85834H15.9333C19.2764 5.85834 21.9373 6.88057 23.9161 8.92503C25.9022 10.9695 26.9061 13.306 26.9061 15.9444C26.9178 18.1076 26.1959 20.2102 24.8596 21.9049C23.4807 23.7012 21.564 24.8986 19.1095 25.4974L27.7551 37.7398H21.7704L13.6449 25.899ZM5.13949 21.4985H15.6067C17.4984 21.4985 19.0176 20.9436 20.1642 19.8556C20.7125 19.3605 21.1501 18.7538 21.4479 18.0758C21.7456 17.3977 21.8968 16.6637 21.8914 15.9225C21.8971 15.1779 21.7497 14.4402 21.4582 13.7557C21.1668 13.0713 20.7378 12.455 20.1981 11.9455C19.0692 10.8356 17.5968 10.2807 15.7809 10.2807H5.18546L5.13949 21.4985Z" fill="#231F20"/>
<path id="Vector_6" d="M39.7442 37.8323C36.3309 37.8323 33.4813 36.7006 31.1929 34.4589C28.9044 32.2173 27.7578 29.4086 27.7578 26.0328C27.7578 22.657 28.902 19.8727 31.1929 17.6311C33.4837 15.3894 36.3309 14.2577 39.7442 14.2577C43.505 14.2577 46.3941 15.585 48.4116 18.2395V14.8467H53.3876V37.2701H48.4116V33.8626C46.4006 36.5172 43.5114 37.8453 39.7442 37.8469V37.8323ZM40.4917 33.6533C42.7099 33.6533 44.604 32.9232 46.145 31.4969C47.6859 30.0707 48.4576 28.2331 48.4576 26.0426C48.4825 25.0249 48.2888 24.0138 47.8897 23.0783C47.4906 22.1428 46.8954 21.3051 46.145 20.6223C44.6195 19.1918 42.5982 18.4187 40.5134 18.4683C38.225 18.4683 36.3551 19.1985 34.8843 20.6004C33.4135 22.0023 32.6878 23.8229 32.6878 26.0207C32.6878 28.2185 33.4353 30.0487 34.9061 31.4847C36.3769 32.9207 38.271 33.6412 40.5618 33.6412L40.4917 33.6533Z" fill="#231F20"/>
<path id="Vector_7" d="M91.633 37.8542C89.0777 37.9003 86.5633 37.2049 84.3904 35.8511C82.2858 34.5247 80.9312 32.9134 80.2998 31.0199L84.8573 29.7786C85.3 30.9955 86.166 31.9983 87.4263 32.8039C88.7453 33.6207 90.2709 34.0365 91.8193 34.0014C93.3143 34.0014 94.5286 33.6971 95.4648 33.1081C96.401 32.5191 96.8654 31.8036 96.8654 30.9541C96.8795 30.647 96.8211 30.3409 96.6949 30.0608C96.5688 29.7808 96.3785 29.5348 96.1397 29.3429C95.6559 28.9519 94.8616 28.6038 93.7569 28.2988L87.2836 26.5123C83.4518 25.4463 81.5359 23.5308 81.5359 20.7659C81.5359 18.9794 82.4237 17.4558 84.2235 16.1732C86.0233 14.8905 88.1956 14.2577 90.7428 14.2577C93.2901 14.2577 95.4624 14.7785 97.3081 15.8251C99.1538 16.8717 100.438 18.2395 101.164 19.9165L96.7227 21.1334C96.1737 20.1847 95.3729 19.4085 94.4101 18.8918C93.2744 18.2598 91.9918 17.9439 90.6944 17.9767C89.6295 17.9377 88.578 18.2264 87.6803 18.8042C86.8869 19.3478 86.4901 19.9789 86.4901 20.6978C86.4901 21.6713 87.3545 22.4112 89.0834 22.9175L95.4841 24.6382C97.4702 25.1834 99.0135 25.9014 100.136 26.8141C101.258 27.7268 101.829 29.0362 101.829 30.7546C101.829 32.7796 100.862 34.4565 98.9797 35.8049C97.0977 37.1533 94.6786 37.8299 91.7588 37.8299L91.633 37.8542Z" fill="#231F20"/>
<path id="Vector_8" d="M116.806 37.8542C112.998 37.8542 109.914 36.7663 107.531 34.5879C105.149 32.4096 103.956 29.5595 103.956 26.0547C103.956 22.6814 105.101 19.8735 107.391 17.6311C109.682 15.3894 112.672 14.2577 116.342 14.2577C120.152 14.2577 123.142 15.3237 125.338 17.4777C127.534 19.6317 128.633 22.3455 128.633 25.5972C128.632 26.2255 128.577 26.8526 128.468 27.4713H108.91C108.962 28.3549 109.196 29.218 109.598 30.0052C110.001 30.7924 110.562 31.4862 111.247 32.0421C112.648 33.1958 114.542 33.7848 116.9 33.7848C120.219 33.7848 122.508 32.5873 123.746 30.1704L128.326 31.4336C127.461 33.1958 126.036 34.6975 124.051 35.9388C122.065 37.18 119.634 37.8104 116.76 37.8104L116.806 37.8542ZM123.7 24.3802C123.642 23.5416 123.42 22.7228 123.047 21.9709C122.673 21.2191 122.155 20.549 121.523 19.9992C120.236 18.8675 118.509 18.2955 116.359 18.2955C114.278 18.2955 112.573 18.8845 111.218 20.0601C109.916 21.1365 109.085 22.6843 108.905 24.3705L123.7 24.3802Z" fill="#231F20"/>
<path id="Vector_9" d="M136.751 17.906C137.435 16.4735 138.568 15.3069 139.976 14.5862C141.403 13.856 143.084 13.5932 145 13.856V18.4804C142.354 18.0731 140.321 18.5737 138.902 19.9821C137.477 21.3889 136.775 23.7644 136.775 27.1305V37.8542H131.751V14.1019H136.775V17.8841L136.751 17.906Z" fill="#231F20"/>
</g>
</g>
</g>
<defs>
<clipPath id="clip0_803_120">
<rect width="145" height="37.8542" fill="white"/>
</clipPath>
</defs>
</svg>
