<svg width="140" height="293" viewBox="0 0 140 293" fill="none" xmlns="http://www.w3.org/2000/svg">
<g id="Group 34">
<mask id="mask0_252_1209" style="mask-type:luminance" maskUnits="userSpaceOnUse" x="-114" y="39" width="214" height="214">
<ellipse id="Mask" cx="-6.9924" cy="146.019" rx="106.874" ry="106.904" transform="rotate(30 -6.9924 146.019)" fill="white"/>
</mask>
<g mask="url(#mask0_252_1209)">
<g id="Group 34_2">
<rect id="Rectangle Copy 5" x="5.45703" y="8.43616" width="2.67185" height="227.172" transform="rotate(30 5.45703 8.43616)" fill="#A90836"/>
<rect id="Rectangle Copy 6" x="18.1816" y="15.7838" width="2.67185" height="227.172" transform="rotate(30 18.1816 15.7838)" fill="#A90836"/>
<rect id="Rectangle Copy 7" x="32.0654" y="23.7995" width="2.67185" height="227.172" transform="rotate(30 32.0654 23.7995)" fill="#A90836"/>
<rect id="Rectangle Copy 8" x="45.9492" y="31.815" width="2.67185" height="227.172" transform="rotate(30 45.9492 31.815)" fill="#A90836"/>
<rect id="Rectangle Copy 9" x="58.6748" y="39.1624" width="2.67185" height="227.172" transform="rotate(30 58.6748 39.1624)" fill="#A90836"/>
<rect id="Rectangle Copy 10" x="72.5586" y="47.1781" width="2.67185" height="227.172" transform="rotate(30 72.5586 47.1781)" fill="#A90836"/>
<rect id="Rectangle Copy 11" x="86.4424" y="55.1935" width="2.67185" height="227.172" transform="rotate(30 86.4424 55.1935)" fill="#A90836"/>
<rect id="Rectangle Copy 12" x="98.0117" y="61.8731" width="2.67185" height="227.172" transform="rotate(30 98.0117 61.8731)" fill="#A90836"/>
<rect id="Rectangle Copy 13" x="113.052" y="70.5566" width="2.67185" height="227.172" transform="rotate(30 113.052 70.5566)" fill="#A90836"/>
<rect id="Rectangle Copy 14" x="125.778" y="77.9043" width="2.67185" height="227.172" transform="rotate(30 125.778 77.9043)" fill="#A90836"/>
<rect id="Rectangle Copy 14_2" x="139.662" y="85.9197" width="2.67185" height="227.172" transform="rotate(30 139.662 85.9197)" fill="#A90836"/>
</g>
</g>
</g>
</svg>
