<svg width="24" height="24" viewBox="0 0 24 24" fill="none" xmlns="http://www.w3.org/2000/svg">
<g id="bx:bxs-lock-alt" opacity="0.75">
<path id="Vector" d="M20 12C20 10.897 19.103 10 18 10H17V7C17 4.243 14.757 2 12 2C9.243 2 7 4.243 7 7V10H6C4.897 10 4 10.897 4 12V20C4 21.103 4.897 22 6 22H18C19.103 22 20 21.103 20 20V12ZM9 7C9 5.346 10.346 4 12 4C13.654 4 15 5.346 15 7V10H9V7Z" fill="url(#paint0_linear_263_27)"/>
</g>
<defs>
<linearGradient id="paint0_linear_263_27" x1="11.2135" y1="-7.01691" x2="30.7257" y2="8.59285" gradientUnits="userSpaceOnUse">
<stop stop-color="#CD2128"/>
<stop offset="1" stop-color="#490C3C"/>
</linearGradient>
</defs>
</svg>
